<?xml version="1.0" encoding="utf-8"?>
<!-- Generator: Adobe Illustrator 25.3.1, SVG Export Plug-In . SVG Version: 6.00 Build 0)  -->
<svg version="1.1" id="Laag_1" xmlns="http://www.w3.org/2000/svg" xmlns:xlink="http://www.w3.org/1999/xlink" x="0px" y="0px"
	 viewBox="0 0 163.1 80" style="enable-background:new 0 0 163.1 80;" xml:space="preserve">
<style type="text/css">
	.st0{fill:#202020;}
	.st1{fill:#C6954E;}
</style>
<path class="st0" d="M144.7,63.7c0.9,0,1.7-0.1,2.4-0.4c0.7-0.3,1.2-0.6,1.5-1.1c0.4-0.5,0.5-1,0.5-1.6c0-0.7-0.2-1.2-0.5-1.6
	c-0.4-0.4-0.8-0.7-1.3-0.8c-0.5-0.1-1.1-0.3-1.9-0.4c-0.7-0.1-1.2-0.2-1.5-0.3s-0.5-0.3-0.5-0.6c0-0.3,0.1-0.5,0.4-0.6
	c0.3-0.2,0.7-0.2,1.3-0.2c1,0,1.9,0.2,2.7,0.7l0.9-2c-0.4-0.3-1-0.5-1.7-0.6c-0.7-0.1-1.3-0.2-2-0.2c-0.9,0-1.7,0.1-2.4,0.4
	s-1.2,0.6-1.5,1.1c-0.3,0.5-0.5,1-0.5,1.6c0,0.7,0.2,1.3,0.6,1.7c0.4,0.4,0.8,0.7,1.3,0.8c0.5,0.2,1.2,0.3,1.9,0.4
	c0.7,0.1,1.1,0.2,1.5,0.3c0.3,0.1,0.5,0.3,0.5,0.6c0,0.6-0.6,0.9-1.8,0.9c-0.6,0-1.2-0.1-1.8-0.3c-0.6-0.2-1.1-0.4-1.5-0.7l-0.9,2
	c0.4,0.3,1,0.5,1.8,0.7C143.1,63.6,143.9,63.7,144.7,63.7 M139.1,63.7c0.5,0,1-0.1,1.4-0.2l-0.1-2.1c-0.1,0-0.2,0.1-0.3,0.1
	c-0.1,0-0.3,0.1-0.4,0.1c-0.4,0-0.7-0.1-0.9-0.3c-0.2-0.2-0.3-0.5-0.3-0.9v-9.8h-2.8v10c0,1.1,0.3,1.9,0.9,2.4
	C137.2,63.4,138,63.7,139.1,63.7 M129.2,56c0.6,0,1.1,0.1,1.5,0.4c0.4,0.3,0.7,0.7,0.8,1.2l-4.6,0.9c0-0.8,0.3-1.4,0.7-1.9
	C128,56.2,128.5,56,129.2,56 M129.6,61.5c-0.6,0-1.2-0.1-1.6-0.4c-0.4-0.2-0.7-0.6-0.9-1.1l7-1.4c0-1-0.2-1.8-0.7-2.6
	c-0.4-0.7-1-1.3-1.8-1.7c-0.7-0.4-1.6-0.6-2.5-0.6c-1,0-1.8,0.2-2.6,0.6c-0.8,0.4-1.4,1-1.8,1.8s-0.7,1.6-0.7,2.5
	c0,0.9,0.2,1.8,0.7,2.5c0.4,0.7,1.1,1.3,1.9,1.7c0.8,0.4,1.8,0.6,2.8,0.6c1.7,0,3-0.5,3.9-1.5l-1.5-1.6c-0.3,0.3-0.7,0.6-1.1,0.7
	C130.6,61.4,130.1,61.5,129.6,61.5 M118.7,53.9c-0.7,0-1.4,0.1-2,0.4c-0.6,0.3-1.1,0.7-1.5,1.2c-0.3-0.5-0.8-0.9-1.3-1.2
	c-0.5-0.3-1.2-0.4-1.8-0.4c-0.6,0-1.2,0.1-1.7,0.3c-0.5,0.2-0.9,0.5-1.3,0.9V54h-2.6v9.5h2.8v-4.8c0-0.8,0.2-1.4,0.6-1.9
	c0.4-0.4,0.9-0.6,1.5-0.6c1.2,0,1.8,0.7,1.8,2.2v5h2.8v-4.8c0-0.8,0.2-1.4,0.6-1.9c0.4-0.4,0.9-0.6,1.5-0.6c0.6,0,1,0.2,1.3,0.6
	c0.3,0.4,0.5,0.9,0.5,1.7v5h2.8v-5.5c0-1.4-0.4-2.5-1.1-3.2C120.8,54.3,119.9,53.9,118.7,53.9 M102.9,52.7c0.5,0,0.9-0.2,1.2-0.5
	c0.3-0.3,0.5-0.7,0.5-1.1c0-0.4-0.2-0.8-0.5-1.1c-0.3-0.3-0.7-0.4-1.2-0.4c-0.5,0-0.9,0.1-1.2,0.4c-0.3,0.3-0.5,0.7-0.5,1.1
	c0,0.4,0.2,0.8,0.5,1.1C102,52.6,102.4,52.7,102.9,52.7 M101.5,63.6h2.8V54h-2.8V63.6z M96.6,54v4.7c0,0.8-0.2,1.5-0.6,1.9
	c-0.4,0.4-0.9,0.6-1.6,0.6c-1.3,0-1.9-0.8-1.9-2.3v-5h-2.8v5.4c0,1.4,0.4,2.5,1.1,3.2c0.7,0.7,1.7,1.1,3,1.1c0.6,0,1.1-0.1,1.6-0.3
	c0.5-0.2,0.9-0.5,1.3-0.9v1.1h2.6V54H96.6z M85.1,55.3V54h-2.6v9.5h2.8v-4.5c0-0.9,0.2-1.5,0.7-2s1.1-0.7,1.9-0.7c0.1,0,0.3,0,0.6,0
	v-2.5c-0.7,0-1.4,0.1-1.9,0.4C85.9,54.5,85.4,54.8,85.1,55.3 M78.3,63.6h3.3l-4.3-5.5l4-4H78l-4,3.8v-7.4h-2.8v13.1H74v-2.4l1.3-1.3
	L78.3,63.6z"/>
<path class="st0" d="M117.2,46.1c-0.7,0-1.3-0.2-1.8-0.7c-0.5-0.5-0.7-1.1-0.7-1.9s0.2-1.4,0.7-1.9c0.5-0.5,1-0.7,1.8-0.7
	c0.7,0,1.3,0.2,1.7,0.7c0.5,0.5,0.7,1.1,0.7,1.9s-0.2,1.4-0.7,1.9C118.5,45.9,117.9,46.1,117.2,46.1 M119.6,35.1v4.6
	c-0.7-0.8-1.6-1.2-2.8-1.2c-0.9,0-1.7,0.2-2.4,0.6c-0.7,0.4-1.3,1-1.7,1.7c-0.4,0.7-0.6,1.6-0.6,2.6c0,1,0.2,1.8,0.6,2.6
	c0.4,0.7,1,1.3,1.7,1.7c0.7,0.4,1.5,0.6,2.4,0.6c1.3,0,2.3-0.4,3-1.2v1.1h2.6V35.1H119.6z M105.9,46.1c-0.7,0-1.3-0.2-1.8-0.7
	c-0.5-0.5-0.7-1.1-0.7-1.9s0.2-1.4,0.7-1.9c0.5-0.5,1-0.7,1.8-0.7c0.7,0,1.3,0.2,1.7,0.7c0.5,0.5,0.7,1.1,0.7,1.9s-0.2,1.4-0.7,1.9
	C107.2,45.9,106.7,46.1,105.9,46.1 M105.9,48.4c1,0,1.9-0.2,2.7-0.6c0.8-0.4,1.4-1,1.9-1.7c0.4-0.7,0.7-1.6,0.7-2.5
	c0-0.9-0.2-1.8-0.7-2.5c-0.4-0.7-1.1-1.3-1.9-1.7c-0.8-0.4-1.7-0.6-2.7-0.6c-1,0-1.9,0.2-2.7,0.6c-0.8,0.4-1.4,1-1.9,1.7
	c-0.4,0.7-0.7,1.6-0.7,2.5c0,0.9,0.2,1.8,0.7,2.5c0.4,0.7,1.1,1.3,1.9,1.7C104,48.2,104.9,48.4,105.9,48.4 M94.7,46.1
	c-0.7,0-1.3-0.2-1.8-0.7c-0.5-0.5-0.7-1.1-0.7-1.9s0.2-1.4,0.7-1.9c0.5-0.5,1-0.7,1.8-0.7c0.7,0,1.3,0.2,1.7,0.7
	c0.5,0.5,0.7,1.1,0.7,1.9s-0.2,1.4-0.7,1.9C96,45.9,95.4,46.1,94.7,46.1 M94.7,48.4c1,0,1.9-0.2,2.7-0.6c0.8-0.4,1.4-1,1.9-1.7
	c0.4-0.7,0.7-1.6,0.7-2.5c0-0.9-0.2-1.8-0.7-2.5c-0.4-0.7-1.1-1.3-1.9-1.7c-0.8-0.4-1.7-0.6-2.7-0.6c-1,0-1.9,0.2-2.7,0.6
	c-0.8,0.4-1.4,1-1.9,1.7c-0.4,0.7-0.7,1.6-0.7,2.5c0,0.9,0.2,1.8,0.7,2.5c0.4,0.7,1.1,1.3,1.9,1.7C92.8,48.2,93.7,48.4,94.7,48.4
	 M85.7,40v-1.3h-2.6v9.5h2.8v-4.5c0-0.9,0.2-1.5,0.7-2c0.4-0.4,1.1-0.7,1.9-0.7c0.1,0,0.3,0,0.6,0v-2.5c-0.7,0-1.4,0.1-1.9,0.4
	C86.5,39.1,86,39.5,85.7,40 M76.4,46.1c-0.7,0-1.3-0.2-1.7-0.7c-0.5-0.5-0.7-1.1-0.7-1.9s0.2-1.4,0.7-1.9c0.5-0.5,1-0.7,1.7-0.7
	c0.7,0,1.3,0.2,1.7,0.7c0.5,0.5,0.7,1.1,0.7,1.9s-0.2,1.4-0.7,1.9C77.6,45.9,77.1,46.1,76.4,46.1 M76.8,38.6c-1.2,0-2.2,0.4-2.9,1.2
	v-4.6h-2.8v13.1h2.6v-1.1c0.7,0.8,1.7,1.2,3,1.2c0.9,0,1.7-0.2,2.4-0.6c0.7-0.4,1.3-1,1.7-1.7c0.4-0.7,0.6-1.6,0.6-2.6
	c0-1-0.2-1.8-0.6-2.6c-0.4-0.7-1-1.3-1.7-1.7C78.5,38.8,77.7,38.6,76.8,38.6"/>
<path class="st0" d="M158.2,24.6c0.6,0,1.1,0.1,1.5,0.4c0.4,0.3,0.7,0.7,0.8,1.2l-4.6,0.9c0-0.8,0.3-1.4,0.7-1.9
	C156.9,24.8,157.5,24.6,158.2,24.6 M158.6,30.1c-0.6,0-1.2-0.1-1.6-0.4c-0.4-0.2-0.7-0.6-0.9-1.1l7-1.4c0-1-0.2-1.9-0.7-2.6
	c-0.4-0.7-1-1.3-1.8-1.7c-0.7-0.4-1.6-0.6-2.5-0.6c-1,0-1.8,0.2-2.6,0.6c-0.8,0.4-1.4,1-1.8,1.8c-0.4,0.7-0.7,1.6-0.7,2.5
	c0,0.9,0.2,1.8,0.7,2.5c0.4,0.7,1.1,1.3,1.9,1.7c0.8,0.4,1.8,0.6,2.8,0.6c1.7,0,3-0.5,3.9-1.5l-1.5-1.6c-0.3,0.3-0.7,0.6-1.1,0.7
	C159.5,30,159.1,30.1,158.6,30.1 M147.9,32.3c0.9,0,1.7-0.1,2.4-0.4c0.7-0.3,1.2-0.6,1.5-1.1c0.4-0.5,0.5-1,0.5-1.6
	c0-0.7-0.2-1.2-0.5-1.6c-0.4-0.4-0.8-0.7-1.3-0.8c-0.5-0.1-1.1-0.3-1.9-0.4c-0.7-0.1-1.2-0.2-1.5-0.3c-0.3-0.1-0.5-0.3-0.5-0.6
	c0-0.3,0.1-0.5,0.4-0.6c0.3-0.2,0.7-0.2,1.3-0.2c1,0,1.9,0.2,2.7,0.7l0.9-2c-0.4-0.3-1-0.5-1.7-0.6c-0.7-0.1-1.3-0.2-2-0.2
	c-0.9,0-1.7,0.1-2.4,0.4c-0.7,0.3-1.2,0.6-1.5,1.1c-0.3,0.5-0.5,1-0.5,1.6c0,0.7,0.2,1.3,0.6,1.7c0.4,0.4,0.8,0.7,1.3,0.8
	c0.5,0.2,1.1,0.3,1.9,0.4c0.7,0.1,1.2,0.2,1.5,0.3c0.3,0.1,0.5,0.3,0.5,0.6c0,0.6-0.6,0.9-1.8,0.9c-0.6,0-1.2-0.1-1.8-0.3
	c-0.6-0.2-1.1-0.4-1.5-0.7l-0.9,2c0.4,0.3,1.1,0.5,1.8,0.7C146.4,32.2,147.1,32.3,147.9,32.3 M140.8,32.1h3.3l-4.3-5.5l4-4h-3.3
	l-4,3.8V19h-2.8v13.1h2.8v-2.4l1.3-1.3L140.8,32.1z M130.1,21.3c0.5,0,0.9-0.2,1.2-0.5c0.3-0.3,0.5-0.7,0.5-1.1
	c0-0.4-0.2-0.8-0.5-1.1c-0.3-0.3-0.7-0.4-1.2-0.4c-0.5,0-0.9,0.1-1.2,0.4c-0.3,0.3-0.5,0.7-0.5,1.1c0,0.4,0.2,0.8,0.5,1.1
	C129.2,21.1,129.6,21.3,130.1,21.3 M127.9,35.7c1.1,0,2-0.3,2.6-1c0.6-0.6,0.9-1.5,0.9-2.6v-9.5h-2.8v9.5c0,0.5-0.1,0.8-0.3,1
	c-0.2,0.2-0.5,0.3-0.8,0.3c-0.5,0-0.8-0.1-1.2-0.3l-0.7,2C126.2,35.5,127,35.7,127.9,35.7 M125,21.3c0.5,0,0.9-0.2,1.2-0.5
	c0.3-0.3,0.5-0.7,0.5-1.1c0-0.4-0.2-0.8-0.5-1.1c-0.3-0.3-0.7-0.4-1.2-0.4c-0.5,0-0.9,0.1-1.2,0.4c-0.3,0.3-0.5,0.7-0.5,1.1
	c0,0.4,0.2,0.8,0.5,1.1C124.1,21.1,124.5,21.3,125,21.3 M123.7,32.1h2.8v-9.5h-2.8V32.1z M121.2,32.3c0.5,0,1-0.1,1.4-0.2l-0.1-2.1
	c-0.1,0-0.2,0.1-0.3,0.1c-0.1,0-0.3,0.1-0.4,0.1c-0.4,0-0.7-0.1-0.9-0.3c-0.2-0.2-0.3-0.5-0.3-0.9V19h-2.8v10c0,1.1,0.3,1.9,0.9,2.4
	C119.3,32,120.1,32.3,121.2,32.3 M111.4,24.6c0.6,0,1.1,0.1,1.5,0.4c0.4,0.3,0.7,0.7,0.8,1.2l-4.6,0.9c0-0.8,0.3-1.4,0.7-1.9
	C110.1,24.8,110.7,24.6,111.4,24.6 M111.8,30.1c-0.6,0-1.2-0.1-1.6-0.4c-0.4-0.2-0.7-0.6-0.9-1.1l7-1.4c0-1-0.2-1.9-0.7-2.6
	s-1-1.3-1.8-1.7c-0.7-0.4-1.6-0.6-2.5-0.6c-1,0-1.8,0.2-2.6,0.6c-0.8,0.4-1.4,1-1.8,1.8c-0.4,0.7-0.7,1.6-0.7,2.5
	c0,0.9,0.2,1.8,0.7,2.5c0.4,0.7,1.1,1.3,1.9,1.7c0.8,0.4,1.8,0.6,2.8,0.6c1.7,0,3-0.5,3.9-1.5l-1.5-1.6c-0.3,0.3-0.7,0.6-1.1,0.7
	C112.7,30,112.3,30.1,111.8,30.1 M99.6,29.4c-0.7,0-1.3-0.2-1.8-0.6c-0.5-0.4-0.7-1-0.7-1.7c0-0.7,0.2-1.3,0.7-1.7
	c0.5-0.4,1.1-0.6,1.8-0.6c0.7,0,1.3,0.2,1.8,0.6c0.5,0.4,0.7,1,0.7,1.7c0,0.7-0.2,1.3-0.7,1.7C100.9,29.2,100.3,29.4,99.6,29.4
	 M102.2,22.6v1.2c-0.7-0.9-1.8-1.4-3.2-1.4c-0.9,0-1.7,0.2-2.4,0.6c-0.7,0.4-1.3,0.9-1.7,1.6c-0.4,0.7-0.6,1.5-0.6,2.4
	c0,0.9,0.2,1.7,0.6,2.4c0.4,0.7,1,1.2,1.7,1.6c0.7,0.4,1.5,0.6,2.4,0.6c1.3,0,2.3-0.4,3-1.2v0.4c0,0.9-0.2,1.5-0.7,2
	c-0.5,0.4-1.2,0.6-2.1,0.6c-0.6,0-1.2-0.1-1.8-0.3c-0.6-0.2-1.1-0.5-1.5-0.8l-1.1,2c0.5,0.4,1.2,0.7,2.1,1c0.8,0.2,1.7,0.3,2.6,0.3
	c1.7,0,3.1-0.4,4-1.3c0.9-0.8,1.4-2.1,1.4-3.9v-7.9H102.2z M87.6,30c-0.7,0-1.3-0.2-1.8-0.7c-0.5-0.5-0.7-1.1-0.7-1.9
	c0-0.8,0.2-1.4,0.7-1.9c0.5-0.5,1-0.7,1.8-0.7c0.7,0,1.3,0.2,1.7,0.7c0.5,0.5,0.7,1.1,0.7,1.9c0,0.8-0.2,1.4-0.7,1.9
	C88.9,29.8,88.3,30,87.6,30 M90,22.6v1c-0.7-0.8-1.6-1.2-2.8-1.2c-0.9,0-1.7,0.2-2.4,0.6c-0.7,0.4-1.3,1-1.7,1.7
	c-0.4,0.7-0.6,1.6-0.6,2.6c0,1,0.2,1.8,0.6,2.6c0.4,0.7,1,1.3,1.7,1.7c0.7,0.4,1.5,0.6,2.4,0.6c1.3,0,2.3-0.4,3-1.2v1.1h2.6v-9.5H90
	z M75.8,30c-0.7,0-1.3-0.2-1.8-0.7c-0.5-0.5-0.7-1.1-0.7-1.9c0-0.8,0.2-1.4,0.7-1.9c0.5-0.5,1-0.7,1.8-0.7c0.7,0,1.3,0.2,1.7,0.7
	c0.5,0.5,0.7,1.1,0.7,1.9c0,0.8-0.2,1.4-0.7,1.9C77,29.8,76.5,30,75.8,30 M78.1,19v4.6c-0.7-0.8-1.6-1.2-2.8-1.2
	c-0.9,0-1.7,0.2-2.4,0.6c-0.7,0.4-1.3,1-1.7,1.7s-0.6,1.6-0.6,2.6c0,1,0.2,1.8,0.6,2.6s1,1.3,1.7,1.7c0.7,0.4,1.5,0.6,2.4,0.6
	c1.3,0,2.3-0.4,3-1.2v1.1h2.6V19H78.1z"/>
<g>
	<path class="st1" d="M48.9,41.4c-8-2.4-9.9,8.1-12.4,5.9c8.3-19.8,27.9-0.7-1.4,8.9c-2.2,1.2-0.6,7.4-3.6,4.7
		C30.8,50.1,49.2,53.2,48.9,41.4"/>
	<path class="st1" d="M46.5,43.3c2,1.5-1.3,2.2-1,0.7C46,43.2,46.2,43.3,46.5,43.3"/>
	<path class="st1" d="M36.2,33.7C36.2,33.7,36.2,33.7,36.2,33.7"/>
	<path class="st1" d="M33.3,40.2c8,3.2,15.9-11.1,9.5-13.5C35.4,27.1,30.2,34.7,33.3,40.2 M36.7,34.6c0.1,0.1,0.2,0.3,0.4,0.4
		c0.5,0.5,1,1,1.2,1.7c0.1,0.4,0.1,0.8-0.1,1.1c-0.1,0.2-0.4,0.3-0.5,0c-0.2-0.6-0.6-1.3-1-1.8c-0.4-0.6-0.8-1.1-1.1-1.7
		c-0.1-0.3-0.3-0.6-0.2-0.9c0-0.1,0.1-0.2,0.2-0.3c0,0,0,0,0,0c0,0,0.1,0,0.1,0c0,0,0,0,0,0c0,0,0,0,0,0c0,0,0,0,0,0
		c0,0,0.1,0,0.1,0.1c0,0,0,0,0,0.1c0,0,0,0,0,0.1c0,0,0,0,0,0.1c0,0,0,0,0,0.1c0,0,0,0,0,0c0,0,0,0.1,0,0.1c0,0,0,0.1,0,0.1
		c0,0,0,0,0,0.1c0,0,0,0,0,0c0,0,0,0,0,0c0.1,0.2,0.1,0.3,0.2,0.4c0,0,0.1,0.1,0.1,0.2C36.6,34.4,36.7,34.5,36.7,34.6 M38.7,32.4
		c0.1,0.1,0.2,0.3,0.3,0.4c0.5,0.5,1,1.1,1.2,1.8c0.1,0.4,0.1,0.8-0.1,1.1c-0.1,0.2-0.4,0.2-0.5,0c0-0.1,0-0.1,0-0.2
		c0-0.2-0.1-0.3-0.1-0.5c-0.2-0.5-0.4-1-0.7-1.4c-0.3-0.5-0.7-0.9-0.9-1.4c-0.1-0.3-0.2-0.6-0.2-0.9c0-0.1,0-0.1,0.1-0.2
		c0,0,0,0,0,0c0,0,0,0,0-0.1c0,0,0-0.1,0-0.1c0,0,0,0,0,0c0,0,0,0,0.1-0.1c0,0,0.1,0,0.1,0c0,0,0,0,0,0c0,0,0,0,0.1,0c0,0,0,0,0.1,0
		c0,0,0,0.1,0.1,0.1c0,0,0,0.1,0,0.1c0,0,0,0,0,0c0,0,0,0,0,0.1c0,0,0,0.1,0,0.1c0,0.1,0,0.2,0.1,0.2c0.1,0.2,0.1,0.3,0.2,0.4
		c0,0,0,0,0,0.1c0,0,0,0,0,0c0,0,0.1,0.1,0.1,0.1C38.6,32.3,38.6,32.3,38.7,32.4 M41.8,32.2c0.1,0.3,0.2,0.6,0.2,0.9
		c0,0.2-0.3,0.3-0.5,0.1c-0.4-0.4-0.7-0.8-1-1.3c-0.2-0.3-0.5-0.6-0.7-1c-0.1-0.3-0.2-0.6-0.1-0.9c0-0.1,0.1-0.3,0.1-0.4
		c0,0,0,0,0,0c0,0,0,0,0,0c0,0,0-0.1,0-0.1c0,0,0,0,0,0c0,0,0.1,0,0.1-0.1c0,0,0.1,0,0.1,0c0,0,0,0,0.1,0c0,0,0.1,0,0.1,0
		c0,0,0,0,0,0c0,0,0,0,0,0.1c0,0,0,0.1,0,0.1c0,0,0,0,0,0c0,0.5,0.2,0.9,0.5,1.3C41.2,31.3,41.5,31.7,41.8,32.2"/>
	<path class="st1" d="M31,22C31,22,31,22,31,22"/>
	<path class="st1" d="M29.1,28.1c7.1,2,12.5-11,6.8-12.5C29.7,16.8,26,23.7,29.1,28.1 M31.4,22.8c0.1,0.1,0.2,0.2,0.3,0.4
		c0.4,0.4,0.9,0.9,1.1,1.5c0.1,0.3,0.1,0.7,0,1c-0.1,0.2-0.3,0.2-0.4,0c-0.2-0.6-0.5-1.1-0.8-1.6c-0.3-0.5-0.7-1-1-1.5
		c-0.1-0.2-0.3-0.6-0.2-0.8c0-0.1,0.1-0.2,0.2-0.2c0,0,0,0,0,0c0,0,0,0,0.1,0c0,0,0,0,0,0c0,0,0,0,0,0c0,0,0,0,0,0c0,0,0.1,0,0.1,0
		c0,0,0,0,0,0.1c0,0,0,0,0,0.1c0,0,0,0,0,0c0,0,0,0,0,0.1c0,0,0,0,0,0c0,0,0,0.1,0,0.1c0,0,0,0.1,0,0.1c0,0,0,0,0,0.1c0,0,0,0,0,0
		c0,0,0,0,0,0c0,0.1,0.1,0.3,0.2,0.4c0,0,0.1,0.1,0.1,0.2C31.3,22.6,31.4,22.7,31.4,22.8 M33.2,20.9c0.1,0.1,0.2,0.2,0.3,0.4
		c0.4,0.5,0.9,0.9,1,1.6c0.1,0.3,0.1,0.7-0.1,1C34.3,24,34,24,34,23.8c0-0.1,0-0.1,0-0.2c0-0.2-0.1-0.3-0.1-0.4
		c-0.2-0.4-0.4-0.9-0.6-1.2c-0.3-0.4-0.6-0.8-0.8-1.2c-0.1-0.2-0.2-0.5-0.2-0.8c0-0.1,0-0.1,0.1-0.2c0,0,0,0,0,0c0,0,0,0,0,0
		c0,0,0,0,0-0.1c0,0,0,0,0,0c0,0,0,0,0.1,0c0,0,0.1,0,0.1,0c0,0,0,0,0,0c0,0,0,0,0.1,0c0,0,0,0,0.1,0c0,0,0,0,0.1,0.1c0,0,0,0,0,0.1
		c0,0,0,0,0,0c0,0,0,0,0,0.1c0,0,0,0.1,0,0.1c0,0.1,0,0.1,0,0.2c0,0.1,0.1,0.3,0.2,0.4c0,0,0,0,0,0.1c0,0,0,0,0,0c0,0,0,0.1,0.1,0.1
		C33.1,20.7,33.1,20.8,33.2,20.9 M36.1,21.5c0,0.2-0.3,0.3-0.4,0.1c-0.3-0.4-0.6-0.7-0.9-1.1c-0.2-0.3-0.5-0.6-0.6-0.9
		c-0.1-0.3-0.2-0.5-0.1-0.8c0-0.1,0.1-0.2,0.1-0.3c0,0,0,0,0,0c0,0,0,0,0,0c0,0,0-0.1,0-0.1c0,0,0,0,0,0c0,0,0,0,0.1,0
		c0,0,0.1,0,0.1,0c0,0,0,0,0,0c0,0,0.1,0,0.1,0c0,0,0,0,0,0c0,0,0,0,0,0.1c0,0,0,0.1,0,0.1c0,0,0,0,0,0c0,0.4,0.2,0.8,0.5,1.2
		c0.3,0.4,0.6,0.7,0.8,1.1C36,20.9,36.1,21.2,36.1,21.5"/>
	<path class="st1" d="M20.3,21.6C20.3,21.6,20.3,21.6,20.3,21.6"/>
	<path class="st1" d="M15.5,18.6c4.3,11.3,15.4,6.2,8.1-1.9C20.3,13.4,13.4,13.1,15.5,18.6 M20.5,16.9c0.2,0,0.2,0.3,0.1,0.4
		c-0.4,0.2-0.7,0.5-1.1,0.7c-0.3,0.2-0.6,0.4-0.9,0.4c-0.2,0.1-0.5,0.1-0.8,0c-0.1,0-0.2-0.1-0.3-0.1c0,0,0,0,0,0c0,0,0,0,0,0
		c0,0-0.1,0-0.1,0c0,0,0,0,0,0c0,0,0,0,0-0.1c0,0,0,0,0-0.1c0,0,0,0,0,0c0,0,0-0.1,0-0.1c0,0,0,0,0,0c0,0,0,0,0.1,0c0,0,0.1,0,0.1,0
		c0,0,0,0,0,0c0.4,0.1,0.7-0.1,1.1-0.3c0.4-0.2,0.7-0.5,1.1-0.6C20,16.9,20.3,16.9,20.5,16.9 M22.4,18.8c0.2,0.1,0.1,0.4-0.1,0.4
		c-0.1,0-0.1,0-0.2,0c-0.1,0-0.2,0-0.4,0.1c-0.4,0.1-0.8,0.2-1.2,0.4c-0.4,0.2-0.8,0.5-1.2,0.6c-0.2,0.1-0.5,0.1-0.7,0.1
		c-0.1,0-0.1,0-0.2-0.1c0,0,0,0,0,0c0,0,0,0,0,0c0,0,0,0-0.1,0c0,0,0,0,0,0c0,0,0,0,0-0.1c0,0,0-0.1,0-0.1c0,0,0,0,0,0
		c0,0,0,0,0-0.1c0,0,0,0,0,0c0,0,0,0,0.1,0c0,0,0,0,0.1,0c0,0,0,0,0,0c0,0,0,0,0.1,0c0,0,0.1,0,0.1,0c0.1,0,0.1,0,0.2,0
		c0.1,0,0.3-0.1,0.4-0.1c0,0,0,0,0.1,0c0,0,0,0,0,0c0,0,0.1,0,0.1,0c0.1,0,0.1-0.1,0.2-0.1c0.1-0.1,0.2-0.2,0.4-0.2
		c0.5-0.3,0.9-0.7,1.5-0.8C21.8,18.5,22.1,18.6,22.4,18.8 M23.8,20.5c0.1,0.1,0.2,0.3,0,0.4c-0.5,0.1-1.1,0.3-1.5,0.6
		c-0.5,0.2-0.9,0.5-1.5,0.7c-0.2,0.1-0.5,0.2-0.8,0.1c-0.1,0-0.2-0.1-0.2-0.2c0,0,0,0,0,0c0,0,0,0,0-0.1c0,0,0,0,0,0c0,0,0,0,0,0
		c0,0,0,0,0,0c0,0,0-0.1,0.1-0.1c0,0,0,0,0.1,0c0,0,0,0,0.1,0c0,0,0,0,0,0c0,0,0,0,0.1,0c0,0,0,0,0,0c0,0,0.1,0,0.1,0
		c0,0,0.1,0,0.1,0c0,0,0,0,0.1,0c0,0,0,0,0,0c0,0,0,0,0,0c0.1,0,0.3-0.1,0.4-0.1c0,0,0.1,0,0.2-0.1c0.1,0,0.1-0.1,0.2-0.1
		c0.1-0.1,0.2-0.2,0.4-0.2c0.4-0.3,0.9-0.7,1.4-0.8C23.2,20.2,23.5,20.3,23.8,20.5"/>
	<path class="st1" d="M19.3,19.7C19.3,19.7,19.3,19.7,19.3,19.7C19.3,19.7,19.3,19.7,19.3,19.7"/>
	<path class="st1" d="M20.1,21.7C20.1,21.7,20.1,21.7,20.1,21.7C20.1,21.7,20.1,21.7,20.1,21.7"/>
	<path class="st1" d="M24.1,33.5C24.1,33.5,24.1,33.5,24.1,33.5"/>
	<path class="st1" d="M18.6,27.2C14.2,33.3,26,38,29.4,35.8C33.8,29.7,22,25.1,18.6,27.2 M23.6,33.9C23.6,33.9,23.6,33.9,23.6,33.9
		C23.6,33.9,23.6,33.9,23.6,33.9C23.6,33.8,23.6,33.8,23.6,33.9c0-0.1,0-0.2,0-0.2c0,0,0,0,0.1,0c0,0,0,0,0.1,0c0,0,0,0,0,0
		c0,0,0,0,0.1,0c0,0,0,0,0,0c0,0,0.1,0,0.1,0c0,0,0.1,0,0.1,0c0,0,0,0,0.1,0c0,0,0,0,0,0c0,0,0,0,0,0c0.1-0.1,0.2-0.1,0.3-0.2
		c0,0,0.1-0.1,0.1-0.1c0.1-0.1,0.1-0.1,0.2-0.2c0.1-0.1,0.2-0.2,0.3-0.3c0.3-0.4,0.7-0.9,1.2-1.2c0.3-0.1,0.6-0.2,0.9-0.1
		c0.2,0,0.3,0.3,0.1,0.4c-0.5,0.3-0.9,0.6-1.3,1c-0.4,0.4-0.8,0.8-1.2,1.1c-0.2,0.1-0.5,0.3-0.7,0.3C23.8,34.1,23.8,34.1,23.6,33.9
		C23.7,34,23.7,34,23.6,33.9C23.7,34,23.6,33.9,23.6,33.9 M21.7,32.6C21.7,32.6,21.7,32.6,21.7,32.6C21.7,32.6,21.7,32.5,21.7,32.6
		c0-0.1,0-0.1,0-0.1c0,0,0,0,0.1-0.1c0,0,0,0,0.1,0c0,0,0,0,0,0c0,0,0,0,0.1,0c0,0,0.1,0,0.1,0c0.1,0,0.1,0,0.2-0.1
		c0.1-0.1,0.2-0.1,0.3-0.2c0,0,0,0,0,0c0,0,0,0,0,0c0,0,0.1,0,0.1-0.1c0.1-0.1,0.1-0.1,0.2-0.2c0.1-0.1,0.2-0.2,0.3-0.3
		c0.4-0.4,0.7-0.9,1.2-1.2c0.3-0.1,0.6-0.1,0.9-0.1c0.2,0.1,0.2,0.3,0,0.4c-0.1,0-0.1,0-0.2,0.1c-0.1,0.1-0.2,0.1-0.3,0.2
		c-0.4,0.2-0.7,0.5-1,0.8c-0.3,0.3-0.6,0.7-1,0.9c-0.2,0.1-0.4,0.3-0.7,0.3c-0.1,0-0.1,0-0.2,0c0,0,0,0,0,0c0,0,0,0,0,0
		c0,0,0,0-0.1,0c0,0,0,0,0,0C21.7,32.7,21.7,32.7,21.7,32.6C21.7,32.6,21.7,32.6,21.7,32.6 M20.2,31.1C20.2,31,20.2,31,20.2,31.1
		c0-0.1,0-0.1,0-0.1c0,0,0-0.1,0-0.1c0,0,0,0,0,0c0,0,0,0,0,0c0,0,0,0,0.1,0c0,0,0,0,0,0c0.4,0,0.7-0.3,1-0.6
		c0.3-0.3,0.6-0.7,0.9-0.9c0.2-0.1,0.4-0.2,0.6-0.3c0.2,0,0.3,0.2,0.2,0.3c-0.3,0.3-0.6,0.7-0.9,1c-0.2,0.2-0.4,0.5-0.7,0.7
		c-0.2,0.1-0.5,0.2-0.7,0.2c-0.1,0-0.2,0-0.3,0c0,0,0,0,0,0c0,0,0,0,0,0C20.4,31.1,20.3,31.1,20.2,31.1
		C20.3,31.1,20.3,31.1,20.2,31.1C20.3,31.1,20.3,31.1,20.2,31.1"/>
	<path class="st1" d="M22.6,32C22.6,32,22.6,32,22.6,32C22.6,32,22.6,32,22.6,32"/>
	<path class="st1" d="M32.7,48.8c5.5-6.3-7.2-12.4-11.7-10.2C15.4,44.8,28.2,51,32.7,48.8 M26.9,46.3C26.9,46.3,26.9,46.3,26.9,46.3
		C26.9,46.2,26.9,46.2,26.9,46.3c0-0.1,0-0.1,0-0.1c0,0,0-0.1,0-0.1c0,0,0,0,0.1-0.1c0,0,0,0,0.1,0c0,0,0,0,0,0c0,0,0,0,0.1,0
		c0,0,0,0,0,0c0,0,0.1,0,0.1,0c0,0,0.1,0,0.1,0c0,0,0,0,0.1,0c0,0,0,0,0,0c0,0,0,0,0,0c0.1-0.1,0.2-0.2,0.3-0.3c0,0,0.1-0.1,0.1-0.1
		c0.1-0.1,0.1-0.1,0.2-0.2c0.1-0.1,0.2-0.3,0.3-0.4c0.4-0.5,0.7-1.1,1.2-1.4c0.3-0.2,0.7-0.2,1-0.1c0.2,0,0.3,0.3,0.1,0.4
		c-0.5,0.3-1,0.7-1.4,1.1c-0.4,0.4-0.8,0.9-1.3,1.3c-0.2,0.2-0.5,0.4-0.8,0.3c-0.1,0-0.2-0.1-0.3-0.2C26.9,46.4,26.9,46.3,26.9,46.3
		C26.9,46.3,26.9,46.3,26.9,46.3 M24.7,44.9C24.7,44.9,24.7,44.9,24.7,44.9C24.7,44.8,24.7,44.8,24.7,44.9c0-0.1,0-0.1,0-0.2
		c0,0,0,0,0.1-0.1c0,0,0,0,0.1,0c0,0,0,0,0,0c0,0,0,0,0.1,0c0,0,0.1,0,0.1,0c0.1,0,0.1-0.1,0.2-0.1c0.1-0.1,0.2-0.2,0.3-0.3
		c0,0,0,0,0.1,0c0,0,0,0,0,0c0,0,0.1-0.1,0.1-0.1c0.1-0.1,0.1-0.1,0.2-0.2c0.1-0.1,0.2-0.2,0.3-0.4c0.4-0.5,0.8-1,1.3-1.3
		c0.3-0.2,0.7-0.2,1-0.1c0.2,0.1,0.3,0.4,0.1,0.4c-0.1,0-0.1,0-0.2,0.1c-0.1,0.1-0.2,0.1-0.4,0.2c-0.4,0.2-0.8,0.5-1.1,0.9
		c-0.3,0.4-0.7,0.8-1.1,1.1c-0.2,0.2-0.5,0.3-0.7,0.3c-0.1,0-0.1,0-0.2,0c0,0,0,0,0,0c0,0,0,0,0,0c0,0,0,0-0.1,0c0,0,0,0,0,0
		C24.8,45,24.8,45,24.7,44.9C24.7,44.9,24.7,44.9,24.7,44.9 M23.1,43.2C23,43.2,23,43.2,23.1,43.2c0-0.1,0-0.1,0-0.1
		c0,0,0-0.1,0-0.1c0,0,0,0,0,0c0,0,0,0,0.1,0c0,0,0.1,0,0.1-0.1c0,0,0,0,0,0c0.4-0.1,0.8-0.4,1-0.7c0.3-0.3,0.6-0.7,1-1
		c0.2-0.2,0.4-0.3,0.7-0.3c0.2,0,0.3,0.2,0.2,0.4c-0.3,0.4-0.6,0.8-0.9,1.1c-0.2,0.3-0.5,0.6-0.8,0.8c-0.2,0.2-0.5,0.3-0.8,0.3
		c-0.1,0-0.2,0-0.3,0c0,0,0,0,0,0c0,0,0,0,0,0C23.2,43.3,23.2,43.3,23.1,43.2C23.1,43.3,23.1,43.3,23.1,43.2
		C23.1,43.3,23.1,43.3,23.1,43.2"/>
	<path class="st1" d="M27.4,45.8C27.4,45.8,27.4,45.8,27.4,45.8"/>
	<path class="st1" d="M25.7,50.1c2.5,1.3,7.3,7.4,3.4,7.9c-2.5-4.2-5.1-8-10.8-7.4c0.1,11.9,14.9,7.4,13.8,18.5
		c-0.2,0.9-1.7,1.1-2.1-0.6c0.6-6.4-7.5-5.3-11.2-10.2C12.9,49.8,16.3,45.8,25.7,50.1"/>
	<path class="st1" d="M20.5,53.7c0.3-0.8,0.6-0.8,0.9-0.9C23.7,54,20.4,55.3,20.5,53.7"/>
	<path class="st1" d="M52.5,77.4c-7.2-0.6-14.4-8.9-20.9-2.2c-3.9-5.9-11.2-2.1-16.3,0.3c-2.2,1.1-7.7,1.6-4.5,3.9
		c5.9-0.2,18.5-11.3,19.5,0c0.4,0.6,1.1,0.7,1.8,0.3c2.5-7.8,9.1-4.5,14.1-1.7C47.5,78.9,55.8,81.3,52.5,77.4"/>
	<path class="st1" d="M0.8,51c0.2,3.1,0.6,6.2,1.3,9.2c0.8,3.5,1.8,7,3.4,10.3c0.7,1.5,1.5,2.9,2.4,4.2l1.4-0.6
		c-1.1-1.5-2-3.1-2.8-4.7c-0.4-0.8-0.7-1.6-1.1-2.4c0.4,0.9,0.9,1.8,1.3,2.6c0.9,1.5,1.8,3,2.9,4.4l1.4-0.6
		c-1.3-1.5-2.4-3.2-3.4-4.9c-2.1-3.7-3.5-7.6-4.5-11.7c-0.5-2-0.9-4-1.2-6.1c0-0.6-0.1-1.3-0.1-1.9C1.8,45,1.9,41.2,2.2,37.4
		c0.4-3.6,0.9-7.2,1.8-10.7c0.8-3.3,1.8-6.6,3.1-9.7c1.2-2.7,2.6-5.4,4.3-7.7c0.6-0.7,1.2-1.5,1.8-2.1c1.6-0.8,3.2-1.5,4.9-2.2
		c2.8-1.1,5.7-2,8.7-2.6c2.6-0.1,5.1,0,7.6,0.6c4.1,0.8,7.9,2.6,11.2,5.1c3.1,2.5,5.6,5.6,7.5,9c2.1,3.7,3.5,7.6,4.5,11.7
		c0.5,2,0.9,4,1.2,6.1c0,0.6,0.1,1.3,0.1,1.9c0.2,3.8,0.1,7.6-0.3,11.4c-0.4,3.6-0.9,7.2-1.8,10.7c-0.8,3.3-1.8,6.6-3.1,9.7
		c-0.8,1.8-1.7,3.6-2.7,5.3l1.4,0.5c0.9-1.5,1.6-3.1,2.3-4.7c1.4-3.3,2.4-6.7,3.3-10.1c0.6-2.6,1.1-5.2,1.5-7.8
		c-0.1,0.9-0.2,1.9-0.3,2.8c-0.4,3.8-1.1,7.6-2.2,11.2c-0.9,2.9-2,5.8-3.7,8.3c-0.1,0.2-0.2,0.3-0.3,0.4l1.5,0.5
		c1.6-2.6,2.7-5.4,3.6-8.3c1.1-3.8,1.9-7.7,2.3-11.7c0.5-4.4,0.6-8.9,0.4-13.4c-0.1-2.4-0.4-4.8-0.7-7.1c-0.2-3.1-0.6-6.2-1.3-9.2
		c-0.8-3.5-1.8-7-3.4-10.3C54,12,52.1,9.1,49.7,6.7c-2.3-2.3-5-4.1-8-5.2c-3.5-1.3-7.1-1.7-10.8-1.4c-1.4,0.1-2.8,0.3-4.2,0.5
		C24.5,0.7,22.2,1,20,1.4c-0.1,0-0.2,0-0.3,0c-1.1,0.2-2.2,0.6-3.2,1.2c-1.4,0.8-2.7,1.8-3.9,3C11.8,6,11,6.4,10.2,6.8
		C9.5,7.2,8.8,7.5,8.3,8.1C8.1,8.3,7.9,8.5,7.7,8.7c-0.4,0.5-0.8,1-1.1,1.5c-1.8,2.7-2.9,5.6-3.8,8.7c-1.1,3.8-1.9,7.7-2.3,11.7
		C0,34.9-0.1,39.4,0.1,43.9C0.2,46.3,0.5,48.6,0.8,51 M41.2,3.2c2.9,1.1,5.5,2.8,7.7,5c2.3,2.3,4.1,5.1,5.5,8
		c0.4,0.8,0.7,1.6,1.1,2.4c-0.4-0.9-0.9-1.8-1.3-2.6c-2-3.6-4.6-6.9-7.9-9.4c-2.1-1.7-4.4-3-6.9-4C40,2.8,40.6,2.9,41.2,3.2 M1.7,31
		c0.4-3.8,1.1-7.6,2.2-11.2c0.9-2.9,2-5.8,3.7-8.3c0.3-0.5,0.7-1,1-1.4C8.8,9.8,9,9.6,9.2,9.5C9.4,9.2,9.7,9,9.9,8.9
		c-1.5,2.2-2.7,4.6-3.7,7C4.8,19.1,3.7,22.5,2.9,26c-0.6,2.6-1.1,5.2-1.5,7.8C1.5,32.9,1.6,31.9,1.7,31"/>
</g>
</svg>
